<svg id="visual" viewBox="0 0 960 540" width="960" height="540" xmlns="http://www.w3.org/2000/svg" xmlns:xlink="http://www.w3.org/1999/xlink" version="1.1"><rect x="0" y="0" width="960" height="540" fill="#171717"></rect><path d="M0 360L80 360L80 359L160 359L160 359L240 359L240 339L320 339L320 339L400 339L400 359L480 359L480 364L560 364L560 349L640 349L640 349L720 349L720 359L800 359L800 361L880 361L880 359L960 359L960 348L960 541L960 541L880 541L880 541L800 541L800 541L720 541L720 541L640 541L640 541L560 541L560 541L480 541L480 541L400 541L400 541L320 541L320 541L240 541L240 541L160 541L160 541L80 541L80 541L0 541Z" fill="#171717"></path><path d="M0 381L80 381L80 368L160 368L160 372L240 372L240 377L320 377L320 374L400 374L400 373L480 373L480 355L560 355L560 355L640 355L640 367L720 367L720 376L800 376L800 359L880 359L880 363L960 363L960 354L960 541L960 541L880 541L880 541L800 541L800 541L720 541L720 541L640 541L640 541L560 541L560 541L480 541L480 541L400 541L400 541L320 541L320 541L240 541L240 541L160 541L160 541L80 541L80 541L0 541Z" fill="#221816"></path><path d="M0 398L80 398L80 381L160 381L160 387L240 387L240 393L320 393L320 384L400 384L400 386L480 386L480 388L560 388L560 386L640 386L640 392L720 392L720 395L800 395L800 391L880 391L880 395L960 395L960 380L960 541L960 541L880 541L880 541L800 541L800 541L720 541L720 541L640 541L640 541L560 541L560 541L480 541L480 541L400 541L400 541L320 541L320 541L240 541L240 541L160 541L160 541L80 541L80 541L0 541Z" fill="#2c1815"></path><path d="M0 408L80 408L80 401L160 401L160 412L240 412L240 395L320 395L320 403L400 403L400 401L480 401L480 400L560 400L560 401L640 401L640 415L720 415L720 406L800 406L800 396L880 396L880 400L960 400L960 397L960 541L960 541L880 541L880 541L800 541L800 541L720 541L720 541L640 541L640 541L560 541L560 541L480 541L480 541L400 541L400 541L320 541L320 541L240 541L240 541L160 541L160 541L80 541L80 541L0 541Z" fill="#351913"></path><path d="M0 419L80 419L80 413L160 413L160 427L240 427L240 413L320 413L320 427L400 427L400 416L480 416L480 430L560 430L560 428L640 428L640 420L720 420L720 433L800 433L800 420L880 420L880 421L960 421L960 424L960 541L960 541L880 541L880 541L800 541L800 541L720 541L720 541L640 541L640 541L560 541L560 541L480 541L480 541L400 541L400 541L320 541L320 541L240 541L240 541L160 541L160 541L80 541L80 541L0 541Z" fill="#3e1812"></path><path d="M0 447L80 447L80 431L160 431L160 443L240 443L240 449L320 449L320 447L400 447L400 440L480 440L480 448L560 448L560 436L640 436L640 441L720 441L720 432L800 432L800 433L880 433L880 449L960 449L960 437L960 541L960 541L880 541L880 541L800 541L800 541L720 541L720 541L640 541L640 541L560 541L560 541L480 541L480 541L400 541L400 541L320 541L320 541L240 541L240 541L160 541L160 541L80 541L80 541L0 541Z" fill="#481710"></path><path d="M0 457L80 457L80 461L160 461L160 455L240 455L240 454L320 454L320 460L400 460L400 458L480 458L480 468L560 468L560 464L640 464L640 452L720 452L720 453L800 453L800 463L880 463L880 462L960 462L960 461L960 541L960 541L880 541L880 541L800 541L800 541L720 541L720 541L640 541L640 541L560 541L560 541L480 541L480 541L400 541L400 541L320 541L320 541L240 541L240 541L160 541L160 541L80 541L80 541L0 541Z" fill="#51160f"></path><path d="M0 482L80 482L80 475L160 475L160 477L240 477L240 475L320 475L320 477L400 477L400 474L480 474L480 483L560 483L560 476L640 476L640 477L720 477L720 485L800 485L800 475L880 475L880 482L960 482L960 471L960 541L960 541L880 541L880 541L800 541L800 541L720 541L720 541L640 541L640 541L560 541L560 541L480 541L480 541L400 541L400 541L320 541L320 541L240 541L240 541L160 541L160 541L80 541L80 541L0 541Z" fill="#5b130d"></path><path d="M0 490L80 490L80 502L160 502L160 495L240 495L240 495L320 495L320 502L400 502L400 494L480 494L480 491L560 491L560 499L640 499L640 495L720 495L720 493L800 493L800 500L880 500L880 491L960 491L960 496L960 541L960 541L880 541L880 541L800 541L800 541L720 541L720 541L640 541L640 541L560 541L560 541L480 541L480 541L400 541L400 541L320 541L320 541L240 541L240 541L160 541L160 541L80 541L80 541L0 541Z" fill="#640f0b"></path><path d="M0 515L80 515L80 510L160 510L160 519L240 519L240 513L320 513L320 519L400 519L400 517L480 517L480 510L560 510L560 519L640 519L640 511L720 511L720 510L800 510L800 516L880 516L880 518L960 518L960 516L960 541L960 541L880 541L880 541L800 541L800 541L720 541L720 541L640 541L640 541L560 541L560 541L480 541L480 541L400 541L400 541L320 541L320 541L240 541L240 541L160 541L160 541L80 541L80 541L0 541Z" fill="#6e0909"></path></svg>