<svg id="visual" viewBox="0 0 960 540" width="960" height="540" xmlns="http://www.w3.org/2000/svg" xmlns:xlink="http://www.w3.org/1999/xlink" version="1.1"><rect x="0" y="0" width="960" height="540" fill="#171717"></rect><path d="M0 61L22.8 62.5C45.7 64 91.3 67 137 66.8C182.7 66.7 228.3 63.3 274 65C319.7 66.7 365.3 73.3 411.2 72.2C457 71 503 62 548.8 56.5C594.7 51 640.3 49 686 52.2C731.7 55.3 777.3 63.7 823 65.7C868.7 67.7 914.3 63.3 937.2 61.2L960 59L960 0L937.2 0C914.3 0 868.7 0 823 0C777.3 0 731.7 0 686 0C640.3 0 594.7 0 548.8 0C503 0 457 0 411.2 0C365.3 0 319.7 0 274 0C228.3 0 182.7 0 137 0C91.3 0 45.7 0 22.8 0L0 0Z" fill="#3e7cb6"></path><path d="M0 60L22.8 59.3C45.7 58.7 91.3 57.3 137 56C182.7 54.7 228.3 53.3 274 49.7C319.7 46 365.3 40 411.2 37C457 34 503 34 548.8 35.2C594.7 36.3 640.3 38.7 686 41.8C731.7 45 777.3 49 823 49.3C868.7 49.7 914.3 46.3 937.2 44.7L960 43L960 0L937.2 0C914.3 0 868.7 0 823 0C777.3 0 731.7 0 686 0C640.3 0 594.7 0 548.8 0C503 0 457 0 411.2 0C365.3 0 319.7 0 274 0C228.3 0 182.7 0 137 0C91.3 0 45.7 0 22.8 0L0 0Z" fill="#29659c"></path><path d="M0 38L22.8 35.5C45.7 33 91.3 28 137 26.2C182.7 24.3 228.3 25.7 274 26.5C319.7 27.3 365.3 27.7 411.2 27.7C457 27.7 503 27.3 548.8 25C594.7 22.7 640.3 18.3 686 18.3C731.7 18.3 777.3 22.7 823 24.7C868.7 26.7 914.3 26.3 937.2 26.2L960 26L960 0L937.2 0C914.3 0 868.7 0 823 0C777.3 0 731.7 0 686 0C640.3 0 594.7 0 548.8 0C503 0 457 0 411.2 0C365.3 0 319.7 0 274 0C228.3 0 182.7 0 137 0C91.3 0 45.7 0 22.8 0L0 0Z" fill="#0e4e83"></path></svg>