<svg id="visual" viewBox="0 0 960 540" width="960" height="540" xmlns="http://www.w3.org/2000/svg" xmlns:xlink="http://www.w3.org/1999/xlink" version="1.1"><rect x="0" y="0" width="960" height="540" fill="#171717"></rect><path d="M0 91L16 88.2C32 85.3 64 79.7 96 80.2C128 80.7 160 87.3 192 88.2C224 89 256 84 288 80.3C320 76.7 352 74.3 384 74.5C416 74.7 448 77.3 480 81.3C512 85.3 544 90.7 576 90.5C608 90.3 640 84.7 672 84.2C704 83.7 736 88.3 768 90.2C800 92 832 91 864 87.2C896 83.3 928 76.7 944 73.3L960 70L960 0L944 0C928 0 896 0 864 0C832 0 800 0 768 0C736 0 704 0 672 0C640 0 608 0 576 0C544 0 512 0 480 0C448 0 416 0 384 0C352 0 320 0 288 0C256 0 224 0 192 0C160 0 128 0 96 0C64 0 32 0 16 0L0 0Z" fill="#171717"></path><path d="M0 53L16 52.3C32 51.7 64 50.3 96 51.8C128 53.3 160 57.7 192 61.2C224 64.7 256 67.3 288 66.2C320 65 352 60 384 59C416 58 448 61 480 63.7C512 66.3 544 68.7 576 68.3C608 68 640 65 672 64.3C704 63.7 736 65.3 768 63.3C800 61.3 832 55.7 864 53.5C896 51.3 928 52.7 944 53.3L960 54L960 0L944 0C928 0 896 0 864 0C832 0 800 0 768 0C736 0 704 0 672 0C640 0 608 0 576 0C544 0 512 0 480 0C448 0 416 0 384 0C352 0 320 0 288 0C256 0 224 0 192 0C160 0 128 0 96 0C64 0 32 0 16 0L0 0Z" fill="#371c1a"></path><path d="M0 54L16 53.3C32 52.7 64 51.3 96 47.5C128 43.7 160 37.3 192 36.2C224 35 256 39 288 41.3C320 43.7 352 44.3 384 43.5C416 42.7 448 40.3 480 40.7C512 41 544 44 576 46C608 48 640 49 672 48.3C704 47.7 736 45.3 768 45.8C800 46.3 832 49.7 864 51.2C896 52.7 928 52.3 944 52.2L960 52L960 0L944 0C928 0 896 0 864 0C832 0 800 0 768 0C736 0 704 0 672 0C640 0 608 0 576 0C544 0 512 0 480 0C448 0 416 0 384 0C352 0 320 0 288 0C256 0 224 0 192 0C160 0 128 0 96 0C64 0 32 0 16 0L0 0Z" fill="#561f1c"></path><path d="M0 8L16 11.5C32 15 64 22 96 22.7C128 23.3 160 17.7 192 18.3C224 19 256 26 288 26.2C320 26.3 352 19.7 384 19.5C416 19.3 448 25.7 480 27.7C512 29.7 544 27.3 576 23.8C608 20.3 640 15.7 672 13.7C704 11.7 736 12.3 768 14C800 15.7 832 18.3 864 17.8C896 17.3 928 13.7 944 11.8L960 10L960 0L944 0C928 0 896 0 864 0C832 0 800 0 768 0C736 0 704 0 672 0C640 0 608 0 576 0C544 0 512 0 480 0C448 0 416 0 384 0C352 0 320 0 288 0C256 0 224 0 192 0C160 0 128 0 96 0C64 0 32 0 16 0L0 0Z" fill="#761e1e"></path></svg>