<svg id="visual" viewBox="0 0 960 540" width="960" height="540" xmlns="http://www.w3.org/2000/svg" xmlns:xlink="http://www.w3.org/1999/xlink" version="1.1"><rect x="0" y="0" width="960" height="540" fill="#171717"></rect><path d="M0 73L16 72.2C32 71.3 64 69.7 96 72C128 74.3 160 80.7 192 83C224 85.3 256 83.7 288 80.8C320 78 352 74 384 75.3C416 76.7 448 83.3 480 84.2C512 85 544 80 576 80.8C608 81.7 640 88.3 672 87.3C704 86.3 736 77.7 768 75.5C800 73.3 832 77.7 864 81.8C896 86 928 90 944 92L960 94L960 0L944 0C928 0 896 0 864 0C832 0 800 0 768 0C736 0 704 0 672 0C640 0 608 0 576 0C544 0 512 0 480 0C448 0 416 0 384 0C352 0 320 0 288 0C256 0 224 0 192 0C160 0 128 0 96 0C64 0 32 0 16 0L0 0Z" fill="#171717"></path><path d="M0 57L16 58.3C32 59.7 64 62.3 96 62.2C128 62 160 59 192 57C224 55 256 54 288 53.7C320 53.3 352 53.7 384 55.7C416 57.7 448 61.3 480 61.2C512 61 544 57 576 57C608 57 640 61 672 64C704 67 736 69 768 70.3C800 71.7 832 72.3 864 71C896 69.7 928 66.3 944 64.7L960 63L960 0L944 0C928 0 896 0 864 0C832 0 800 0 768 0C736 0 704 0 672 0C640 0 608 0 576 0C544 0 512 0 480 0C448 0 416 0 384 0C352 0 320 0 288 0C256 0 224 0 192 0C160 0 128 0 96 0C64 0 32 0 16 0L0 0Z" fill="#1e2432"></path><path d="M0 28L16 30.3C32 32.7 64 37.3 96 39.8C128 42.3 160 42.7 192 44.7C224 46.7 256 50.3 288 47.8C320 45.3 352 36.7 384 34.2C416 31.7 448 35.3 480 38.8C512 42.3 544 45.7 576 44C608 42.3 640 35.7 672 34.2C704 32.7 736 36.3 768 38.7C800 41 832 42 864 41.5C896 41 928 39 944 38L960 37L960 0L944 0C928 0 896 0 864 0C832 0 800 0 768 0C736 0 704 0 672 0C640 0 608 0 576 0C544 0 512 0 480 0C448 0 416 0 384 0C352 0 320 0 288 0C256 0 224 0 192 0C160 0 128 0 96 0C64 0 32 0 16 0L0 0Z" fill="#21324f"></path><path d="M0 16L16 15.5C32 15 64 14 96 14.2C128 14.3 160 15.7 192 18.7C224 21.7 256 26.3 288 25C320 23.7 352 16.3 384 15.2C416 14 448 19 480 20.7C512 22.3 544 20.7 576 20.3C608 20 640 21 672 20.8C704 20.7 736 19.3 768 21C800 22.7 832 27.3 864 26.7C896 26 928 20 944 17L960 14L960 0L944 0C928 0 896 0 864 0C832 0 800 0 768 0C736 0 704 0 672 0C640 0 608 0 576 0C544 0 512 0 480 0C448 0 416 0 384 0C352 0 320 0 288 0C256 0 224 0 192 0C160 0 128 0 96 0C64 0 32 0 16 0L0 0Z" fill="#20406e"></path></svg>