<svg id="visual" viewBox="0 0 960 540" width="960" height="540" xmlns="http://www.w3.org/2000/svg" xmlns:xlink="http://www.w3.org/1999/xlink" version="1.1"><rect x="0" y="0" width="960" height="540" fill="#171717"></rect><path d="M0 71L16 73.8C32 76.7 64 82.3 96 82C128 81.7 160 75.3 192 72.5C224 69.7 256 70.3 288 73.2C320 76 352 81 384 82.8C416 84.7 448 83.3 480 82.8C512 82.3 544 82.7 576 84.2C608 85.7 640 88.3 672 89.2C704 90 736 89 768 86C800 83 832 78 864 79.5C896 81 928 89 944 93L960 97L960 0L944 0C928 0 896 0 864 0C832 0 800 0 768 0C736 0 704 0 672 0C640 0 608 0 576 0C544 0 512 0 480 0C448 0 416 0 384 0C352 0 320 0 288 0C256 0 224 0 192 0C160 0 128 0 96 0C64 0 32 0 16 0L0 0Z" fill="#171717"></path><path d="M0 48L16 50.5C32 53 64 58 96 60.3C128 62.7 160 62.3 192 60C224 57.7 256 53.3 288 55.5C320 57.7 352 66.3 384 67.2C416 68 448 61 480 57C512 53 544 52 576 51C608 50 640 49 672 48.5C704 48 736 48 768 50C800 52 832 56 864 57.2C896 58.3 928 56.7 944 55.8L960 55L960 0L944 0C928 0 896 0 864 0C832 0 800 0 768 0C736 0 704 0 672 0C640 0 608 0 576 0C544 0 512 0 480 0C448 0 416 0 384 0C352 0 320 0 288 0C256 0 224 0 192 0C160 0 128 0 96 0C64 0 32 0 16 0L0 0Z" fill="#2d3347"></path><path d="M0 28L16 29.5C32 31 64 34 96 35.7C128 37.3 160 37.7 192 36.2C224 34.7 256 31.3 288 30.2C320 29 352 30 384 33C416 36 448 41 480 40.5C512 40 544 34 576 33C608 32 640 36 672 40.2C704 44.3 736 48.7 768 47.5C800 46.3 832 39.7 864 36.2C896 32.7 928 32.3 944 32.2L960 32L960 0L944 0C928 0 896 0 864 0C832 0 800 0 768 0C736 0 704 0 672 0C640 0 608 0 576 0C544 0 512 0 480 0C448 0 416 0 384 0C352 0 320 0 288 0C256 0 224 0 192 0C160 0 128 0 96 0C64 0 32 0 16 0L0 0Z" fill="#41527c"></path><path d="M0 24L16 25C32 26 64 28 96 25.8C128 23.7 160 17.3 192 16.2C224 15 256 19 288 20.2C320 21.3 352 19.7 384 20.8C416 22 448 26 480 25.7C512 25.3 544 20.7 576 17.5C608 14.3 640 12.7 672 12.8C704 13 736 15 768 17.5C800 20 832 23 864 24.8C896 26.7 928 27.3 944 27.7L960 28L960 0L944 0C928 0 896 0 864 0C832 0 800 0 768 0C736 0 704 0 672 0C640 0 608 0 576 0C544 0 512 0 480 0C448 0 416 0 384 0C352 0 320 0 288 0C256 0 224 0 192 0C160 0 128 0 96 0C64 0 32 0 16 0L0 0Z" fill="#5573b6"></path></svg>