<svg id="visual" viewBox="0 0 960 540" width="960" height="540" xmlns="http://www.w3.org/2000/svg" xmlns:xlink="http://www.w3.org/1999/xlink" version="1.1"><rect x="0" y="0" width="960" height="540" fill="#171717"></rect><path d="M0 81L16 81.7C32 82.3 64 83.7 96 85.5C128 87.3 160 89.7 192 87.5C224 85.3 256 78.7 288 78.5C320 78.3 352 84.7 384 86.2C416 87.7 448 84.3 480 82.5C512 80.7 544 80.3 576 80.2C608 80 640 80 672 79.8C704 79.7 736 79.3 768 78.2C800 77 832 75 864 76.5C896 78 928 83 944 85.5L960 88L960 0L944 0C928 0 896 0 864 0C832 0 800 0 768 0C736 0 704 0 672 0C640 0 608 0 576 0C544 0 512 0 480 0C448 0 416 0 384 0C352 0 320 0 288 0C256 0 224 0 192 0C160 0 128 0 96 0C64 0 32 0 16 0L0 0Z" fill="#171717"></path><path d="M0 66L16 66.7C32 67.3 64 68.7 96 66.8C128 65 160 60 192 58.8C224 57.7 256 60.3 288 60.5C320 60.7 352 58.3 384 60.3C416 62.3 448 68.7 480 69.7C512 70.7 544 66.3 576 62.2C608 58 640 54 672 55.7C704 57.3 736 64.7 768 67.2C800 69.7 832 67.3 864 66.8C896 66.3 928 67.7 944 68.3L960 69L960 0L944 0C928 0 896 0 864 0C832 0 800 0 768 0C736 0 704 0 672 0C640 0 608 0 576 0C544 0 512 0 480 0C448 0 416 0 384 0C352 0 320 0 288 0C256 0 224 0 192 0C160 0 128 0 96 0C64 0 32 0 16 0L0 0Z" fill="#36391f"></path><path d="M0 52L16 51.5C32 51 64 50 96 50.3C128 50.7 160 52.3 192 49.7C224 47 256 40 288 37.7C320 35.3 352 37.7 384 40.7C416 43.7 448 47.3 480 47.8C512 48.3 544 45.7 576 45.8C608 46 640 49 672 47C704 45 736 38 768 36.3C800 34.7 832 38.3 864 39.7C896 41 928 40 944 39.5L960 39L960 0L944 0C928 0 896 0 864 0C832 0 800 0 768 0C736 0 704 0 672 0C640 0 608 0 576 0C544 0 512 0 480 0C448 0 416 0 384 0C352 0 320 0 288 0C256 0 224 0 192 0C160 0 128 0 96 0C64 0 32 0 16 0L0 0Z" fill="#565e24"></path><path d="M0 25L16 22.3C32 19.7 64 14.3 96 12.3C128 10.3 160 11.7 192 13C224 14.3 256 15.7 288 16.7C320 17.7 352 18.3 384 19.2C416 20 448 21 480 23C512 25 544 28 576 28.3C608 28.7 640 26.3 672 24C704 21.7 736 19.3 768 17.7C800 16 832 15 864 17.5C896 20 928 26 944 29L960 32L960 0L944 0C928 0 896 0 864 0C832 0 800 0 768 0C736 0 704 0 672 0C640 0 608 0 576 0C544 0 512 0 480 0C448 0 416 0 384 0C352 0 320 0 288 0C256 0 224 0 192 0C160 0 128 0 96 0C64 0 32 0 16 0L0 0Z" fill="#788627"></path></svg>